HIERARCHY
ROOT Hips
{
	OFFSET 0.00000 0.00000 0.00000
	CHANNELS 6 Xposition Yposition Zposition Zrotation Yrotation Xrotation 
	JOINT LHipJoint
	{
		OFFSET 0 0 0
		CHANNELS 3 Zrotation Yrotation Xrotation
		JOINT LeftHip
		{
			OFFSET 1.81638 -1.86202 0.89635
			CHANNELS 3 Zrotation Yrotation Xrotation
			JOINT LeftKnee
			{
				OFFSET 2.63464 -7.23861 0.00000
				CHANNELS 3 Zrotation Yrotation Xrotation
				JOINT LeftAnkle
				{
					OFFSET 2.45871 -6.75336 0.00000
					CHANNELS 3 Zrotation Yrotation Xrotation
					JOINT LeftToe
					{
						OFFSET 0.34235 -0.94059 2.20020
						CHANNELS 3 Zrotation Yrotation Xrotation
						End Site
						{
							OFFSET 0.00000 -0.00000 1.18611
						}
					}
				}
			}
		}
	}
	JOINT RHipJoint
	{
		OFFSET 0 0 0
		CHANNELS 3 Zrotation Yrotation Xrotation
		JOINT RightHip
		{
			OFFSET -1.84405 -1.86203 0.89635
			CHANNELS 3 Zrotation Yrotation Xrotation
			JOINT RightKnee
			{
				OFFSET -2.71067 -7.44751 0.00000
				CHANNELS 3 Zrotation Yrotation Xrotation
				JOINT RightAnkle
				{
					OFFSET -2.47159 -6.79060 0.00000
					CHANNELS 3 Zrotation Yrotation Xrotation
					JOINT RightToe
					{
						OFFSET -0.26223 -0.72048 2.36007
						CHANNELS 3 Zrotation Yrotation Xrotation
						End Site
						{
							OFFSET -0.00000 -0.00000 1.23343
						}
					}
				}
			}
		}
	}
	JOINT lowerback
	{
		OFFSET 0 0 0
		CHANNELS 3 Zrotation Yrotation Xrotation
		JOINT Chest
		{
			OFFSET 0.02089 1.99248 -0.22512
			CHANNELS 3 Zrotation Yrotation Xrotation
			JOINT Chest2
			{
				OFFSET 0.01476 2.01356 -0.03079
				CHANNELS 3 Zrotation Yrotation Xrotation
				JOINT lowerneck
				{
					OFFSET 0 0 0
					CHANNELS 3 Zrotation Yrotation Xrotation
					JOINT Neck
					{
						OFFSET 0.04846 1.65098 0.06663
						CHANNELS 3 Zrotation Yrotation Xrotation
						JOINT Head
						{
							OFFSET -0.06061 1.60634 -0.07565
							CHANNELS 3 Zrotation Yrotation Xrotation
							End Site
							{
								OFFSET -0.02954 1.73562 -0.03642
							}
						}
					}
				}
				JOINT LeftCollar
				{
					OFFSET 0 0 0
					CHANNELS 3 Zrotation Yrotation Xrotation
					JOINT LeftShoulder
					{
						OFFSET 3.45234 1.47051 -0.06993
CHANNELS 3 Zrotation Xrotation Yrotation
						JOINT LeftElbow
						{
OFFSET 0 -5.493130 0.000000
CHANNELS 3 Zrotation Xrotation Yrotation
							JOINT LeftWrist
							{
OFFSET 0 -3.290370 0.000000
CHANNELS 3 Zrotation Xrotation Yrotation
								JOINT lhand
								{
									OFFSET 0 0 0
CHANNELS 3 Zrotation Xrotation Yrotation
									JOINT LFingers
									{
OFFSET 0 -0.729660 0.000000
CHANNELS 3 Zrotation Xrotation Yrotation
										End Site
										{
OFFSET 0 -0.588270 0.000000
										}
									}
								}
								JOINT LThumb
								{
OFFSET 0 0.000000 0.000000
CHANNELS 3 Zrotation Xrotation Yrotation
									End Site
									{
OFFSET 0 -0.597250 0.597250
									}
								}
							}
						}
					}
				}
				JOINT RightCollar
				{
					OFFSET 0 0 0
					CHANNELS 3 Zrotation Yrotation Xrotation
					JOINT RightShoulder
					{
						OFFSET -3.41935 1.44327 0.20453
CHANNELS 3 Zrotation Xrotation Yrotation
						JOINT RightElbow
						{
OFFSET 0 -5.236840 0.000000
CHANNELS 3 Zrotation Xrotation Yrotation
							JOINT RightWrist
							{
OFFSET 0 -3.382510 0.000000
CHANNELS 3 Zrotation Xrotation Yrotation
								JOINT rhand
								{
									OFFSET 0 0 0
CHANNELS 3 Zrotation Xrotation Yrotation
									JOINT RFingers
									{
OFFSET 0 -0.691450 0.000000
CHANNELS 3 Zrotation Xrotation Yrotation
										End Site
										{
OFFSET 0 -0.557470 0.000000
										}
									}
								}
								JOINT RThumb
								{
OFFSET 0 0.000000 0.000000
CHANNELS 3 Zrotation Xrotation Yrotation
									End Site
									{
OFFSET 0 -0.565980 0.565980
									}
								}
							}
						}
					}
				}
			}
		}
	}
}
MOTION
Frames: 5
Frame Time: 0.008333333333333333
7.929609 17.430341 -18.966828 -1.357136 72.423204 4.833749 0.000000 0.000000 0.000000 -5.574732 -2.859128 -24.934209 10.451205 17.655692 60.985704 -4.349690 -36.222621 0.679872 0.005049 -0.457081 -1.255999 0.000000 0.000000 0.000000 23.576851 16.673845 -19.429014 -4.778966 -13.130434 39.858679 -1.172089 8.897570 -19.425733 -0.256031 -3.255535 8.990923 2.956058 -2.870237 21.689505 4.685380 -2.358327 5.101337 4.014840 -1.016742 -6.446540 2.615292 -6.585656 -5.125897 -3.438648 -8.931692 -2.169065 -1.603638 -4.501841 -0.104291 0.000000 0.000000 0.000000 17.772755 10.253428 -42.185126 40.107275 -48.127064 18.521075 7.869014 10.914879 -6.757792 0.000000 0.000000 0.000000 -7.125000 0.000000 0.000000 -15.825765 36.388524 -3.459016 0.000000 0.000000 0.000000 -23.832430 10.679443 42.427058 -20.000775 -30.642691 -5.532072 -11.616063 14.886471 11.595853 0.000000 0.000000 0.000000 7.125000 0.000000 0.000000 13.802145 41.407247 1.250341
8.123620 17.444132 -18.910492 -1.308635 70.878492 5.011107 0.000000 0.000000 0.000000 -6.015206 -2.704003 -26.243160 10.144864 17.489885 59.970625 -4.205926 -36.134659 -0.524277 0.008658 -0.598507 -1.644674 0.000000 0.000000 0.000000 23.800830 17.299902 -18.367608 -4.683156 -13.017701 39.434874 -1.178689 9.464336 -19.533304 -0.264557 -3.308730 9.139477 3.067330 -2.268903 21.770125 4.652381 -1.559391 5.028959 3.707282 -0.636421 -6.607765 2.880725 -6.585597 -5.137767 -3.839461 -8.943943 -1.957253 -1.780330 -4.512702 -0.067446 0.000000 0.000000 0.000000 16.667857 12.297446 -42.977356 37.594813 -46.570070 16.673399 7.295325 10.725264 -6.400024 0.000000 0.000000 0.000000 -7.125000 0.000000 0.000000 -16.215452 36.008230 -3.706627 0.000000 0.000000 0.000000 -24.461912 9.380378 42.962389 -20.704491 -31.480274 -5.895545 -12.659738 14.670818 11.934593 0.000000 0.000000 0.000000 7.125000 0.000000 0.000000 12.979697 41.840825 1.032195
8.318912 17.464531 -18.853168 -1.287303 69.319521 5.194157 0.000000 0.000000 0.000000 -6.452998 -2.676814 -27.440253 9.714399 17.246006 58.529438 -4.028916 -35.950504 -1.737824 0.014295 -0.771515 -2.120416 0.000000 0.000000 0.000000 24.015901 17.981940 -17.233171 -4.553514 -12.862579 38.856247 -1.177549 9.953191 -19.580741 -0.273348 -3.362963 9.291078 3.180169 -1.669252 21.837353 4.574872 -0.767952 4.939547 3.349026 -0.262157 -6.775498 3.137265 -6.584709 -5.198496 -4.182517 -8.953343 -1.697706 -1.941675 -4.522436 -0.004157 0.000000 0.000000 0.000000 15.729901 14.403392 -43.760960 35.401019 -45.095696 15.096948 6.454852 10.605575 -6.224658 0.000000 0.000000 0.000000 -7.125000 0.000000 0.000000 -16.858407 35.790443 -3.957193 0.000000 0.000000 0.000000 -25.059876 8.192079 43.513965 -21.620982 -32.545844 -6.380864 -13.767883 13.982522 12.442322 0.000000 0.000000 0.000000 7.125000 0.000000 0.000000 12.135136 42.454889 0.774657
8.516594 17.492637 -18.794380 -1.297953 67.785074 5.382159 0.000000 0.000000 0.000000 -6.858761 -2.851849 -28.484575 9.156301 16.905403 56.626291 -3.813448 -35.625421 -2.917890 0.022808 -0.972392 -2.672776 0.000000 0.000000 0.000000 24.221221 18.701772 -16.005932 -4.382734 -12.652556 38.082008 -1.168305 10.341463 -19.560633 -0.281447 -3.411843 9.427478 3.301147 -1.093864 21.872736 4.448642 -0.013185 4.839636 2.938803 0.091867 -6.928461 3.370142 -6.581561 -5.303237 -4.437173 -8.958181 -1.431849 -2.074219 -4.529926 0.074208 0.000000 0.000000 0.000000 15.009571 16.572339 -44.549149 33.620424 -43.797413 13.851072 5.307614 10.630712 -6.247832 0.000000 0.000000 0.000000 -7.125000 0.000000 0.000000 -17.789067 35.746270 -4.213681 0.000000 0.000000 0.000000 -25.623555 7.100709 44.083576 -22.775803 -33.839208 -7.014551 -14.877592 12.866720 13.091248 0.000000 0.000000 0.000000 7.125000 0.000000 0.000000 11.312845 43.221307 0.505458
8.716872 17.527085 -18.734178 -1.335943 66.296653 5.567009 0.000000 0.000000 0.000000 -7.212167 -3.224917 -29.380804 8.511914 16.481233 54.383320 -3.571218 -35.177980 -4.045632 0.031620 -1.147489 -3.154685 0.000000 0.000000 0.000000 24.420986 19.429099 -14.700936 -4.180203 -12.395960 37.148180 -1.153402 10.647307 -19.489249 -0.288059 -3.451379 9.538019 3.429302 -0.551383 21.872937 4.287792 0.694903 4.739356 2.497240 0.421675 -7.054084 3.581190 -6.577099 -5.426586 -4.616593 -8.961292 -1.201843 -2.179463 -4.536008 0.149358 0.000000 0.000000 0.000000 14.474817 18.788211 -45.371144 32.207583 -42.709805 12.882212 3.946472 10.708301 -6.410136 0.000000 0.000000 0.000000 -7.125000 0.000000 0.000000 -18.920905 35.820490 -4.470322 0.000000 0.000000 0.000000 -26.167783 6.068448 44.662045 -24.116254 -35.283631 -7.775017 -15.908478 11.572579 13.781151 0.000000 0.000000 0.000000 7.125000 0.000000 0.000000 10.561676 44.030706 0.257076
